<?xml version="1.0" standalone="no"?>
<!DOCTYPE svg PUBLIC "-//W3C//DTD SVG 20010904//EN"
 "http://www.w3.org/TR/2001/REC-SVG-20010904/DTD/svg10.dtd">
<svg version="1.0" xmlns="http://www.w3.org/2000/svg"
 width="834.000000pt" height="834.000000pt" viewBox="0 0 834.000000 834.000000"
 preserveAspectRatio="xMidYMid meet">
<metadata>
Created by potrace 1.14, written by Peter Selinger 2001-2017
</metadata>
<g transform="translate(0.000000,834.000000) scale(0.100000,-0.100000)"
fill="#000000" stroke="none">
<path d="M1283 6384 c-6 -18 -7 -37 -3 -45 5 -8 4 -19 -2 -26 -6 -8 -6 -13 -1
-13 11 0 11 -29 -1 -48 -4 -6 -3 -12 2 -12 10 0 9 -30 -2 -48 -4 -6 -3 -12 2
-12 10 0 9 -30 -2 -48 -4 -6 -3 -12 2 -12 10 0 9 -36 0 -46 -4 -3 -3 -17 2
-30 6 -16 6 -24 -1 -24 -6 0 -7 -6 -2 -12 11 -18 10 -42 -2 -50 -6 -5 -6 -8 1
-8 12 0 12 -29 0 -48 -4 -6 -3 -12 3 -12 10 0 8 -31 -4 -49 -3 -5 -2 -12 3
-15 11 -6 9 -77 -3 -95 -5 -10 -4 -12 4 -7 9 6 10 0 5 -20 -6 -21 -4 -25 7
-19 8 5 7 0 -4 -12 -9 -11 -15 -22 -12 -25 12 -12 13 -48 2 -48 -7 0 -6 -4 3
-10 8 -5 11 -10 6 -10 -5 0 -2 -8 5 -17 10 -11 10 -14 2 -9 -12 7 -18 -6 -13
-29 9 -43 9 -56 1 -51 -5 3 -7 -3 -4 -14 3 -11 10 -17 17 -13 6 3 3 -3 -7 -14
-11 -12 -14 -24 -9 -27 11 -7 11 -24 -1 -43 -4 -6 -3 -14 2 -17 8 -5 8 -27 1
-46 -1 -3 -1 -9 0 -15 10 -49 10 -56 -2 -49 -10 6 -10 5 -1 -7 18 -23 19 -25
5 -42 -8 -9 -9 -18 -3 -21 10 -7 10 -24 -2 -43 -4 -6 -3 -14 2 -17 10 -7 9
-25 -2 -43 -5 -7 -4 -13 2 -13 10 0 8 -31 -4 -49 -3 -5 -1 -12 4 -15 10 -7 9
-25 -2 -43 -5 -7 -4 -13 0 -13 5 0 9 -13 8 -30 0 -16 -4 -30 -9 -30 -5 0 -4
-6 1 -12 11 -15 11 -48 0 -65 -5 -7 -4 -13 1 -13 10 0 9 -30 -2 -48 -4 -6 -3
-12 2 -12 10 0 9 -30 -1 -47 -4 -6 -3 -14 3 -18 6 -4 7 -11 4 -17 -4 -6 -6
-31 -5 -57 1 -25 2 -56 1 -67 0 -25 40 -41 52 -21 4 7 8 8 8 2 0 -6 56 -9 153
-8 l153 3 -1 -103 c0 -56 3 -112 7 -125 4 -13 4 -21 0 -18 -4 2 -8 -15 -7 -39
0 -24 3 -41 8 -38 4 2 7 0 7 -5 0 -5 69 -9 158 -10 86 0 162 -1 167 -1 7 -1
11 -53 10 -152 0 -91 4 -153 10 -157 5 -4 80 -7 165 -7 l155 0 3 -153 3 -152
47 -1 c26 0 121 -1 212 -2 l165 -2 1 -151 c1 -83 4 -156 7 -161 3 -5 64 -9
137 -8 72 0 134 -3 136 -7 3 -5 11 -5 17 -1 7 4 17 8 24 9 15 2 35 -53 23 -61
-5 -3 -7 -12 -4 -20 9 -23 10 -105 1 -105 -5 0 -5 -6 -1 -12 5 -7 8 -23 7 -35
-1 -13 -1 -34 -2 -47 -1 -19 -6 -24 -21 -21 -11 2 -20 -1 -20 -6 0 -6 -6 -7
-12 -3 -18 11 -48 12 -48 2 0 -5 -5 -6 -11 -3 -18 12 -59 13 -59 2 0 -8 -3 -8
-11 0 -6 6 -23 8 -43 3 -19 -4 -40 -3 -49 1 -10 6 -18 5 -22 -1 -5 -8 -11 -8
-20 0 -23 19 -29 -9 -29 -154 l-1 -140 -161 -2 c-89 -1 -166 -4 -171 -7 -7 -5
-9 -895 -2 -932 3 -11 188 -14 205 -3 6 4 14 4 18 0 4 -3 107 -7 229 -7 220 0
222 0 223 -22 1 -12 4 -28 7 -37 4 -9 3 -16 -1 -16 -4 0 -7 -16 -8 -35 0 -19
2 -35 5 -35 8 0 5 -65 -4 -79 -3 -6 -1 -11 5 -11 7 0 8 -6 0 -19 -7 -14 -7
-22 0 -26 8 -5 7 -11 -1 -21 -9 -11 -9 -14 1 -14 9 0 9 -4 2 -13 -7 -8 -7 -18
-2 -27 5 -9 5 -19 -2 -27 -7 -9 -7 -13 2 -13 10 0 10 -3 1 -14 -8 -10 -9 -16
-1 -21 6 -4 7 -12 0 -24 -6 -12 -5 -22 2 -29 7 -7 8 -12 2 -12 -5 0 -9 -26 -9
-57 l0 -58 -167 1 -166 0 -4 -28 c-3 -15 -1 -28 4 -28 5 0 6 -5 2 -12 -10 -16
-11 -98 -1 -98 5 0 5 -6 0 -12 -4 -7 -8 -31 -8 -53 0 -29 -4 -40 -15 -40 -8 0
-21 -4 -29 -9 -9 -6 -12 -5 -8 1 5 7 -6 10 -31 8 -20 -1 -43 3 -51 9 -12 8
-13 8 -7 -2 5 -9 -1 -12 -23 -10 -17 1 -31 7 -31 13 0 6 -3 6 -8 -1 -4 -7 -42
-11 -104 -10 -54 1 -98 -2 -98 -7 0 -4 -3 -6 -7 -4 -9 6 -11 -66 -2 -73 4 -3
3 -15 -2 -28 -7 -19 -15 -23 -43 -21 -19 2 -38 0 -42 -4 -4 -4 -13 -2 -21 4
-10 9 -13 8 -13 -2 0 -11 -2 -11 -10 1 -5 8 -10 10 -10 4 0 -13 -42 -13 -52 1
-5 6 -8 6 -8 -1 0 -6 -7 -11 -15 -11 -8 0 -15 4 -15 8 0 5 -10 5 -23 0 -13 -5
-30 -5 -39 0 -11 6 -19 5 -23 -1 -4 -6 -10 -8 -15 -5 -4 3 -7 -6 -5 -20 1 -14
-1 -25 -4 -25 -4 0 -6 -15 -4 -32 2 -18 4 -41 4 -50 0 -14 9 -18 37 -19 82 -1
298 -1 307 1 6 1 15 2 20 1 6 -1 97 -3 204 -4 l194 -2 1 -27 c1 -16 -2 -28 -7
-28 -5 0 -3 -8 4 -17 12 -14 12 -16 0 -8 -11 6 -12 5 -5 -6 8 -13 10 -18 13
-37 0 -5 609 -8 1351 -8 1087 0 1350 3 1351 13 1 7 3 36 4 63 4 76 3 74 20 60
8 -7 15 -8 15 -3 0 10 41 10 58 -1 7 -4 12 -4 12 1 0 4 43 6 95 3 52 -3 95 -3
95 0 0 3 32 3 71 0 39 -3 73 -2 76 2 2 5 9 6 14 2 16 -9 79 -10 79 -1 0 4 5 5
11 1 11 -6 200 -7 206 0 8 8 8 144 1 140 -4 -3 -8 -1 -8 5 0 7 -8 7 -25 1 -14
-5 -25 -6 -25 -1 0 7 -49 6 -112 -2 -16 -3 -28 -1 -28 3 0 4 -7 7 -15 7 -8 0
-15 -5 -15 -11 0 -6 -4 -6 -11 1 -7 7 -21 8 -39 3 -15 -4 -34 -4 -41 1 -15 9
-21 68 -8 84 5 6 -3 24 -17 40 -14 17 -23 25 -20 19 6 -12 -122 -13 -141 -1
-6 4 -14 3 -17 -2 -7 -11 -146 -9 -165 3 -10 6 -12 6 -7 -3 5 -8 -2 -11 -24
-9 -20 1 -29 7 -26 15 3 7 1 15 -4 18 -8 5 -4 50 6 67 3 4 0 8 -7 8 -8 0 -9 3
0 13 6 8 8 17 4 21 -12 11 -12 36 0 36 8 0 8 3 0 11 -7 7 -8 21 -3 40 12 42
-5 47 -165 45 -77 -1 -149 0 -160 2 -20 3 -20 10 -20 300 0 163 3 299 7 302 3
3 154 5 335 5 206 0 332 4 338 10 11 11 15 927 4 935 -4 3 -78 5 -166 4 -87
-1 -163 3 -169 8 -8 6 -9 20 -4 43 4 19 5 35 1 35 -8 0 -6 74 3 89 4 6 4 11
-1 11 -4 0 -8 16 -8 35 0 19 3 35 8 35 4 0 1 10 -8 23 -12 19 -23 23 -67 22
-29 0 -58 -4 -65 -8 -6 -4 -14 -4 -16 0 -7 10 -88 10 -104 0 -7 -5 -13 -4 -13
1 0 10 -42 8 -61 -4 -8 -4 -9 -3 -5 4 4 7 3 12 -1 12 -10 0 -11 283 -2 290 4
3 80 5 168 4 89 0 161 2 162 5 0 3 2 15 5 26 3 19 5 52 4 85 -1 8 1 30 3 48 2
17 1 32 -3 32 -3 0 -4 21 -3 48 1 26 2 55 2 64 1 15 22 17 213 18 122 0 215 5
218 10 3 5 5 36 5 67 -1 32 4 61 9 65 7 5 7 8 1 8 -8 0 -12 95 -6 145 1 6 58
10 153 9 84 -1 158 2 164 7 6 5 10 61 9 154 -1 80 2 148 7 151 5 3 83 5 174 5
163 -1 164 -1 165 22 0 12 2 87 2 167 l2 145 160 1 c88 1 169 2 181 3 l21 1
-1 958 -1 957 -182 0 c-156 1 -182 -1 -185 -15 -2 -8 -3 -84 -3 -167 l1 -153
-36 -1 c-19 0 -96 -2 -170 -3 -74 -2 -138 -4 -142 -4 -4 -1 -3 -13 2 -26 5
-13 6 -26 3 -30 -8 -8 -10 -108 -1 -132 3 -12 4 -25 1 -28 -7 -6 -7 -149 -1
-176 3 -16 12 -15 -215 -23 -70 -2 -130 -7 -134 -10 -3 -4 -5 -45 -5 -92 1
-47 -2 -85 -6 -86 -34 -4 -72 -3 -72 1 0 7 -70 4 -77 -4 -3 -3 -14 -1 -24 5
-11 5 -19 6 -19 2 0 -4 -11 -8 -25 -8 -14 0 -25 4 -25 8 0 5 -5 5 -12 1 -15
-10 -90 -10 -105 -1 -6 4 -14 3 -18 -2 -3 -6 -11 -8 -18 -5 -8 3 -11 22 -9 57
4 60 4 64 -1 97 -2 14 1 30 6 37 5 7 5 18 1 25 -11 17 -11 48 -1 70 12 29 -19
34 -185 33 -107 -1 -158 2 -159 9 -1 6 -2 67 -4 136 -1 69 -3 130 -4 135 -1 8
-315 11 -1010 11 -957 0 -1009 -1 -1020 -18 -6 -10 -8 -18 -3 -18 9 0 8 -41
-1 -57 -4 -7 -3 -15 3 -18 8 -5 8 -11 0 -20 -7 -8 -7 -15 -1 -19 10 -7 9 -31
-2 -42 -4 -4 -2 -13 4 -21 9 -10 8 -13 -2 -13 -12 0 -12 -2 0 -9 9 -6 10 -10
2 -16 -9 -5 -9 -10 0 -21 17 -21 1 -23 -172 -21 -94 1 -160 -2 -165 -8 -11
-12 -10 -157 1 -175 5 -9 4 -11 -3 -6 -14 9 -14 9 -3 -32 5 -17 6 -32 2 -32
-5 0 -7 -13 -5 -30 2 -16 0 -29 -4 -29 -4 1 -9 0 -12 -1 -17 -6 -50 -5 -50 2
0 5 -8 5 -17 -1 -10 -5 -26 -5 -39 -1 -12 5 -24 6 -27 3 -9 -8 -137 -9 -137 0
0 4 -8 4 -17 0 -16 -8 -41 -9 -90 -4 -7 0 -13 10 -13 20 0 11 -6 22 -12 24
-10 4 -10 6 0 6 6 1 12 10 12 22 0 11 -4 17 -10 14 -6 -3 -7 1 -4 9 3 9 10 16
16 16 5 0 6 6 1 13 -4 6 -6 22 -5 34 4 29 -8 31 -190 30 -158 -2 -177 2 -158
33 5 7 6 23 3 34 -5 24 -5 22 -2 101 2 34 -1 66 -5 73 -4 7 -4 12 1 12 4 0 8
25 8 55 0 30 -4 55 -8 55 -4 0 -3 9 3 19 16 31 -3 36 -150 38 -74 0 -149 2
-167 2 l-32 1 0 148 c0 199 1 191 -16 188 -8 -1 -18 -5 -21 -9 -13 -12 -102
-8 -107 6 -4 9 -8 8 -16 -3 -7 -10 -11 -11 -11 -2 0 6 -5 12 -11 12 -5 0 -7
-4 -4 -10 3 -5 2 -10 -4 -10 -5 0 -11 6 -14 13 -4 10 -7 10 -18 0 -17 -17
-126 -17 -131 -1 -3 7 -9 -1 -15 -18z m4297 -1429 c45 0 56 -4 65 -21 5 -11
15 -19 21 -17 7 2 14 -3 18 -12 4 -11 2 -14 -6 -9 -8 5 -8 3 -2 -7 12 -20 13
-190 1 -182 -6 4 -7 1 -1 -8 18 -29 10 -114 -9 -96 -7 6 -34 -30 -30 -40 6
-15 4 -15 -145 -15 -82 0 -110 -3 -105 -11 4 -8 1 -7 -9 1 -8 7 -26 10 -39 8
-41 -6 -81 47 -85 111 -1 29 2 53 7 53 6 0 7 6 2 13 -12 19 -13 40 -1 54 6 8
6 13 1 13 -6 0 -9 26 -7 60 3 46 9 65 26 82 21 21 31 23 125 22 69 -1 101 2
96 9 -4 6 -1 7 8 1 8 -5 39 -9 69 -9z m-2570 -10 c0 7 58 10 163 9 190 -2 180
-1 172 -14 -6 -9 15 -14 31 -7 8 3 28 -44 25 -58 -7 -27 -6 -125 2 -125 4 0 5
-6 1 -12 -5 -7 -8 -41 -9 -75 0 -35 -4 -63 -8 -62 -11 1 -36 -34 -31 -42 7
-12 -30 -15 -196 -13 -205 2 -190 0 -190 24 0 18 -6 22 -26 19 -14 -2 -22 26
-12 38 6 7 7 13 2 13 -13 0 -8 270 5 283 8 8 11 8 11 -2 0 -7 5 -9 10 -6 6 4
8 11 5 16 -4 5 1 9 9 9 9 0 16 6 16 13 0 8 4 7 10 -3 5 -8 10 -10 10 -5z m529
-1066 c7 5 28 5 47 1 19 -4 37 -4 40 1 3 5 12 5 23 0 10 -6 23 -6 31 -1 8 5
19 6 25 2 17 -11 35 -11 35 0 0 7 4 7 13 0 7 -6 18 -7 25 -3 7 4 33 5 58 1 24
-4 47 -3 50 2 3 4 10 5 16 2 13 -9 136 -9 144 -1 4 4 11 4 15 1 11 -7 440 -6
447 1 3 2 11 0 19 -6 8 -7 13 -8 13 -1 0 6 13 7 35 2 21 -5 38 -4 41 2 4 5 11
5 18 -1 7 -6 15 -8 18 -6 10 11 48 14 53 5 3 -6 16 -5 31 0 33 13 35 5 32
-125 l-3 -109 -75 -2 c-95 -2 -89 0 -84 -29 5 -30 21 -27 -186 -29 -91 -1
-171 -5 -177 -9 -7 -5 -13 -5 -13 0 0 4 -68 8 -150 8 -83 0 -150 -4 -150 -8 0
-5 -6 -5 -12 -1 -7 5 -74 8 -148 9 l-135 0 -3 28 c-2 15 -9 28 -15 28 -7 1
-37 3 -67 4 -30 1 -62 3 -70 4 -12 1 -15 18 -15 91 -1 50 3 90 8 90 5 0 5 6
-1 13 -13 15 1 42 17 33 6 -4 11 -2 11 5 0 8 4 8 13 1 7 -6 19 -7 26 -3z m380
-1333 c6 -4 11 -4 11 1 0 6 531 10 560 4 8 -2 5 -104 -3 -118 -4 -6 -4 -14 0
-16 10 -6 10 -334 0 -343 -3 -4 -4 -11 0 -17 9 -15 10 -668 1 -673 -17 -11
-48 -12 -48 -2 0 7 -4 7 -13 0 -8 -7 -18 -7 -27 -2 -8 5 -19 6 -25 2 -15 -10
-35 -11 -35 -3 0 4 -7 8 -15 8 -8 0 -15 -4 -15 -8 0 -9 -26 -6 -36 4 -4 3 -12
3 -18 -1 -16 -10 -60 -8 -68 3 -5 6 -8 5 -8 -3 0 -10 -5 -10 -20 -2 -12 6 -20
7 -20 1 0 -10 -25 -9 -36 2 -4 3 -15 2 -25 -3 -12 -7 -20 -7 -24 0 -4 6 -12 7
-18 3 -17 -11 -81 -10 -89 2 -5 6 -8 5 -8 -2 0 -9 -7 -10 -24 -3 -13 5 -27 6
-30 2 -11 -10 -36 -11 -36 -1 0 6 -4 7 -10 4 -19 -12 -50 -14 -50 -3 0 7 -6 6
-15 -2 -11 -9 -15 -9 -15 -1 0 7 -4 9 -10 6 -6 -4 -9 9 -8 33 0 21 -3 45 -7
52 -5 8 -4 11 1 7 11 -6 10 105 -1 122 -3 6 -2 11 3 11 13 0 10 33 -3 42 -6 5
-6 8 1 8 8 0 9 13 4 40 -5 27 -4 40 4 40 6 0 4 5 -4 10 -12 8 -12 10 -1 10 10
0 11 3 2 13 -6 8 -8 17 -4 21 11 11 12 35 2 42 -5 3 -5 13 1 25 8 13 7 19 0
19 -6 0 -8 5 -4 12 9 14 11 118 3 118 -3 0 -3 20 1 45 4 26 3 48 -4 55 -6 6
-6 10 -1 10 6 0 11 11 11 25 1 14 -1 25 -5 25 -4 0 -7 10 -5 23 1 12 3 22 4
22 1 0 2 19 3 43 1 23 -2 42 -7 42 -6 0 -5 5 2 12 8 8 8 17 1 31 -8 13 -8 17
-1 13 6 -4 10 2 9 14 -1 11 -5 20 -10 20 -4 0 -5 5 -1 12 4 6 7 42 7 80 -1 37
3 65 8 62 5 -3 9 -1 9 3 0 10 143 9 159 -1z"/>
<path d="M1378 6403 c6 -2 18 -2 25 0 6 3 1 5 -13 5 -14 0 -19 -2 -12 -5z"/>
<path d="M1588 6403 c7 -3 16 -2 19 1 4 3 -2 6 -13 5 -11 0 -14 -3 -6 -6z"/>
</g>
</svg>
